# xmcd
#
# Track frame offsets:
#	150
#	34072
#	60584
#	76949
#	94836
#	116442
#	136403
#	150502
#	179224
#	201913
#	222715
#	238822
#
# Disc length: 3477 seconds
#
# Revision: 1
# Processed by: cddbd v1.5.2PL0 Copyright (c) Steve Scherf et al.
# Submitted via: audiograbber 1.83.01
#
DISCID=ad0d930c
DTITLE=Jarkko Martikainen - Hyvää yötä, hyvät ihmiset
DYEAR=1900
DGENRE=
TTITLE0=Rakkaus
TTITLE1=Isäni elämä, teot ja kirjoitukset
TTITLE2=Muovailuvahaa
TTITLE3=Kaikki me kuolemme pian
TTITLE4=Terroristin häät
TTITLE5=Normaali katastrofi
TTITLE6=Elegia
TTITLE7=Myrsky
TTITLE8=Kainuu opettaa
TTITLE9=Valssi tanssitaidottomille
TTITLE10=Kello on paljon, kulkekaa hiljaa
TTITLE11=Jos mulla menisi todella huonosti
EXTD=
EXTT0=
EXTT1=
EXTT2=
EXTT3=
EXTT4=
EXTT5=
EXTT6=
EXTT7=
EXTT8=
EXTT9=
EXTT10=
EXTT11=
PLAYORDER=
